<?xml version="1.0" encoding="UTF-8"?>
<svg width="91px" height="21px" viewBox="0 0 91 21" version="1.1" xmlns="http://www.w3.org/2000/svg" xmlns:xlink="http://www.w3.org/1999/xlink">
    <title>BUGATTI_wordmark</title>
    <defs>
        <polygon id="path-1" points="0 0 13 0 13 20 0 20"></polygon>
    </defs>
    <g id="Design" stroke="none" stroke-width="1" fill="none" fill-rule="evenodd">
        <g id="Bugatti-Roadster-Website-D8" transform="translate(-675.000000, -35.000000)">
            <g id="BUGATTI_wordmark" transform="translate(675.000000, 35.000000)">
                <g id="Group-3">
                    <mask id="mask-2" fill="white">
                        <use xlink:href="#path-1"></use>
                    </mask>
                    <g id="Clip-2"></g>
                    <path d="M6.65001598,16.9142744 L3.38433876,16.9142744 L3.38433876,11.3714153 L6.65001598,11.3714153 C8.40384587,11.3714153 9.61337033,12.4857326 9.61337033,14.1428632 C9.61337033,15.8000305 8.40384587,16.9142744 6.65001598,16.9142744 Z M3.38433876,3.08572561 L6.19645401,3.08572561 C7.85954044,3.08572561 8.97836028,4.14284483 8.97836028,5.68572597 C8.97836028,7.22857043 7.85954044,8.28572634 6.19645401,8.28572634 L3.38433876,8.28572634 L3.38433876,3.08572561 Z M10.5809511,9.62854255 C11.6997709,8.65712876 12.3650288,7.28569516 12.3650288,5.68572597 C12.3650288,2.40000881 9.8250274,0 6.31740646,0 L-0.00232974215,0 L-0.00232974215,20 L6.77096843,20 C10.369294,20 13,17.5428298 13,14.1428632 C13,12.2285429 12.0928761,10.6285737 10.5809511,9.62854255 L10.5809511,9.62854255 Z" id="Fill-1" fill="#FFFFFF" mask="url(#mask-2)"></path>
                </g>
                <path d="M23.8000269,14.941179 C23.8000269,16.6176636 22.6285856,17.8234831 21,17.8234831 C19.3714511,17.8234831 18.2000098,16.6176636 18.2000098,14.941179 L18.2000098,0 L15,0 L15,14.7058843 C15,18.3529529 17.5142934,21 21,21 C24.4857066,21 27,18.3529529 27,14.7058843 L27,0 L23.8000269,0 L23.8000269,14.941179" id="Fill-4" fill="#FFFFFF"></path>
                <path d="M36.9999266,0 C33.5142627,0 31,2.59617695 31,6.17306929 L31,14.8269307 C31,18.4038601 33.5142627,21 36.9999266,21 C40.4857373,21 43,18.4038601 43,14.8269307 L43,8.94230494 L36.9999266,8.94230494 L36.9999266,12.0576951 L39.8000294,12.0576951 L39.8000294,15.0577003 C39.8000294,16.7019433 38.6285657,17.8845728 36.9999266,17.8845728 C35.371361,17.8845728 34.199934,16.7019433 34.199934,15.0577003 L34.199934,5.94229965 C34.199934,4.29805672 35.371361,3.11539011 36.9999266,3.11539011 C38.6285657,3.11539011 39.8000294,4.29805672 39.8000294,5.94229965 L39.8000294,6.46154986 L43,6.46154986 L43,6.17306929 C43,2.59617695 40.4857373,0 36.9999266,0" id="Fill-5" fill="#FFFFFF"></path>
                <path d="M49.9411098,12.9142964 L51.9998112,4.14284483 L54.0588902,12.9142964 L49.9411098,12.9142964 Z M49.7352775,0 L45,20 L48.2646146,20 L49.2057784,15.9999853 L54.7938439,15.9999853 L55.7350077,20 L59,20 L54.2647225,0 L49.7352775,0 L49.7352775,0 Z" id="Fill-6" fill="#FFFFFF"></path>
                <polyline id="Fill-7" fill="#FFFFFF" points="60 3.08572561 64.400159 3.08572561 64.4287767 20 67.5715902 20 67.6002079 3.08572561 72 3.08572561 72 0 60 0 60 3.08572561"></polyline>
                <polyline id="Fill-8" fill="#FFFFFF" points="73 3.08572561 77.400159 3.08572561 77.4287767 20 80.5715902 20 80.6002079 3.08572561 85 3.08572561 85 0 73 0 73 3.08572561"></polyline>
                <polygon id="Fill-9" fill="#FFFFFF" points="88 20 91 20 91 0 88 0"></polygon>
            </g>
        </g>
    </g>
</svg>